<svg width="313" height="226" viewBox="0 0 313 226" fill="none" xmlns="http://www.w3.org/2000/svg">
<mask id="mask0_147_623" style="mask-type:alpha" maskUnits="userSpaceOnUse" x="0" y="0" width="313" height="226">
<path d="M312.5 0.881348V217.381C312.5 221.523 309.142 224.881 305 224.881H8C3.85787 224.881 0.5 221.523 0.5 217.381V0.881348H312.5Z" fill="#222222" stroke="#2F2F2F"/>
</mask>
<g mask="url(#mask0_147_623)">
<path d="M205.159 197.36L174 179.371L205.159 161.381L236.317 179.371L205.159 197.36Z" fill="#434343" stroke="#BBBBBB" stroke-width="0.468552"/>
<path d="M174 216.585L205.393 234.71V197.545L174 179.421V216.585Z" fill="#434343"/>
<path d="M205.393 197.46V197.545M205.393 197.545V234.71L174 216.585V179.421L205.393 197.545Z" stroke="#D8D8D8" stroke-width="0.468552"/>
<path d="M236.507 179.658L205.436 197.536V233.757L236.507 216.245V179.658Z" fill="#434343" stroke="#BBBBBB" stroke-width="0.468552"/>
<circle cx="189.5" cy="207.881" r="2.5" fill="#AAAAAA"/>
<line x1="187.25" y1="208.814" x2="142.25" y2="234.814" stroke="#BBBBBB"/>
<path d="M294.159 145.36L263 127.371L294.159 109.381L325.317 127.371L294.159 145.36Z" fill="#434343" stroke="#BBBBBB" stroke-width="0.468552"/>
<path d="M263 164.585L294.393 182.71V145.545L263 127.421V164.585Z" fill="#434343"/>
<path d="M294.393 145.46V145.545M294.393 145.545V182.71L263 164.585V127.421L294.393 145.545Z" stroke="#D8D8D8" stroke-width="0.468552"/>
<path d="M325.507 127.658L294.436 145.536V181.757L325.507 164.245V127.658Z" fill="#434343" stroke="#BBBBBB" stroke-width="0.468552"/>
<circle cx="278.5" cy="155.881" r="2.5" fill="#AAAAAA"/>
<line x1="276.249" y1="156.815" x2="236.249" y2="179.815" stroke="#BBBBBB"/>
<path d="M205.159 90.3603L174 72.3708L205.159 54.3813L236.317 72.3708L205.159 90.3603Z" fill="#434343" stroke="#BBBBBB" stroke-width="0.468552"/>
<path d="M174 109.585L205.393 127.71V90.5453L174 72.4205V109.585Z" fill="#434343"/>
<path d="M205.393 90.4598V90.5453M205.393 90.5453V127.71L174 109.585V72.4205L205.393 90.5453Z" stroke="#D8D8D8" stroke-width="0.468552"/>
<path d="M236.507 72.6581L205.436 90.5364V126.757L236.507 109.245V72.6581Z" fill="#434343" stroke="#BBBBBB" stroke-width="0.468552"/>
<circle cx="189.5" cy="100.881" r="2.5" fill="#AAAAAA"/>
<line x1="187.265" y1="101.806" x2="110.265" y2="149.806" stroke="#BBBBBB"/>
<path d="M282.159 43.3603L251 25.3708L282.159 7.38135L313.317 25.3708L282.159 43.3603Z" fill="#434343" stroke="#BBBBBB" stroke-width="0.468552"/>
<path d="M251 62.5849L282.393 80.7096V43.5453L251 25.4205V62.5849Z" fill="#434343"/>
<path d="M282.393 43.4598V43.5453M282.393 43.5453V80.7096L251 62.5849V25.4205L282.393 43.5453Z" stroke="#D8D8D8" stroke-width="0.468552"/>
<path d="M313.507 25.6581L282.436 43.5364V79.7573L313.507 62.2446V25.6581Z" fill="#434343" stroke="#BBBBBB" stroke-width="0.468552"/>
<circle cx="266.5" cy="53.8813" r="2.5" fill="#AAAAAA"/>
<line x1="264.27" y1="54.8019" x2="236.27" y2="72.8019" stroke="#BBBBBB"/>
<path d="M119.159 46.3603L88 28.3708L119.159 10.3813L150.317 28.3708L119.159 46.3603Z" fill="#434343" stroke="#BBBBBB" stroke-width="0.468552"/>
<path d="M88 65.5849L119.393 83.7096V46.5453L88 28.4205V65.5849Z" fill="#434343"/>
<path d="M119.393 46.4598V46.5453M119.393 46.5453V83.7096L88 65.5849V28.4205L119.393 46.5453Z" stroke="#D8D8D8" stroke-width="0.468552"/>
<path d="M150.507 28.6581L119.436 46.5364V82.7573L150.507 65.2446V28.6581Z" fill="#434343" stroke="#BBBBBB" stroke-width="0.468552"/>
<circle cx="103.5" cy="56.8813" r="2.5" fill="#AAAAAA"/>
<line x1="101.265" y1="57.8057" x2="24.2645" y2="105.806" stroke="#BBBBBB"/>
<path d="M102.159 153.36L71 135.371L102.159 117.381L133.317 135.371L102.159 153.36Z" fill="#434343" stroke="#BBBBBB" stroke-width="0.468552"/>
<path d="M71 172.585L102.393 190.71V153.545L71 135.421V172.585Z" fill="#434343"/>
<path d="M102.393 153.46V153.545M102.393 153.545V190.71L71 172.585V135.421L102.393 153.545Z" stroke="#D8D8D8" stroke-width="0.468552"/>
<path d="M133.507 135.658L102.436 153.536V189.757L133.507 172.245V135.658Z" fill="#434343" stroke="#BBBBBB" stroke-width="0.468552"/>
<circle cx="86.5" cy="163.881" r="2.5" fill="#AAAAAA"/>
<line x1="84.2519" y1="164.813" x2="36.2519" y2="192.813" stroke="#BBBBBB"/>
<path d="M23.1587 104.36L-8 86.3708L23.1587 68.3813L54.3174 86.3708L23.1587 104.36Z" fill="#434343" stroke="#BBBBBB" stroke-width="0.468552"/>
<path d="M-8 123.585L23.393 141.71V104.545L-8 86.4205V123.585Z" fill="#434343"/>
<path d="M23.393 104.46V104.545M23.393 104.545V141.71L-8 123.585V86.4205L23.393 104.545Z" stroke="#D8D8D8" stroke-width="0.468552"/>
<path d="M54.5065 86.6581L23.436 104.536V140.757L54.5065 123.245V86.6581Z" fill="#434343" stroke="#BBBBBB" stroke-width="0.468552"/>
<circle cx="7.5" cy="114.881" r="2.5" fill="#AAAAAA"/>
<line x1="5.24924" y1="115.815" x2="-34.7508" y2="138.815" stroke="#D9D9D9"/>
<path d="M7.15869 209.36L-24 191.371L7.15869 173.381L38.3174 191.371L7.15869 209.36Z" fill="#434343" stroke="#BBBBBB" stroke-width="0.468552"/>
<path d="M-24 228.585L7.39296 246.71V209.545L-24 191.421V228.585Z" fill="#434343"/>
<path d="M7.39296 209.46V209.545M7.39296 209.545V246.71L-24 228.585V191.421L7.39296 209.545Z" stroke="#D8D8D8" stroke-width="0.468552"/>
<path d="M38.5065 191.658L7.43604 209.536V245.757L38.5065 228.245V191.658Z" fill="#434343" stroke="#BBBBBB" stroke-width="0.468552"/>
<circle cx="158" cy="121.381" r="9.5" fill="#AC952F" stroke="#FAD83B"/>
<path d="M153.251 123.381L152.065 120.115H152.765L153.657 122.719L154.553 120.115H155.243L154.058 123.381H153.251ZM157.033 123.437C156.716 123.437 156.436 123.366 156.193 123.223C155.95 123.08 155.759 122.882 155.619 122.63C155.482 122.375 155.414 122.081 155.414 121.748C155.414 121.415 155.482 121.123 155.619 120.871C155.759 120.616 155.95 120.416 156.193 120.273C156.436 120.13 156.716 120.059 157.033 120.059C157.354 120.059 157.635 120.13 157.878 120.273C158.124 120.416 158.313 120.616 158.447 120.871C158.584 121.123 158.652 121.415 158.652 121.748C158.652 122.081 158.584 122.375 158.447 122.63C158.313 122.882 158.124 123.08 157.878 123.223C157.635 123.366 157.354 123.437 157.033 123.437ZM157.033 122.849C157.229 122.849 157.399 122.804 157.542 122.714C157.685 122.624 157.795 122.498 157.873 122.336C157.951 122.171 157.99 121.975 157.99 121.748C157.99 121.521 157.951 121.326 157.873 121.165C157.795 121 157.685 120.872 157.542 120.782C157.399 120.692 157.229 120.647 157.033 120.647C156.84 120.647 156.672 120.692 156.529 120.782C156.389 120.872 156.279 121 156.198 121.165C156.12 121.326 156.081 121.521 156.081 121.748C156.081 121.975 156.12 122.171 156.198 122.336C156.279 122.498 156.389 122.624 156.529 122.714C156.672 122.804 156.84 122.849 157.033 122.849ZM159.846 123.381V120.642H158.894V120.115H161.446V120.642H160.494V123.381H159.846ZM161.888 123.381V120.115H164.048V120.642H162.541V121.468H163.908V121.977H162.541V122.854H164.048V123.381H161.888Z" fill="white"/>
<circle cx="251" cy="117.381" r="9.5" fill="#AC952F" stroke="#FAD83B"/>
<path d="M246.251 119.381L245.065 116.115H245.765L246.657 118.719L247.553 116.115H248.243L247.058 119.381H246.251ZM250.033 119.437C249.716 119.437 249.436 119.366 249.193 119.223C248.95 119.08 248.759 118.882 248.619 118.63C248.482 118.375 248.414 118.081 248.414 117.748C248.414 117.415 248.482 117.123 248.619 116.871C248.759 116.616 248.95 116.416 249.193 116.273C249.436 116.13 249.716 116.059 250.033 116.059C250.354 116.059 250.635 116.13 250.878 116.273C251.124 116.416 251.313 116.616 251.447 116.871C251.584 117.123 251.652 117.415 251.652 117.748C251.652 118.081 251.584 118.375 251.447 118.63C251.313 118.882 251.124 119.08 250.878 119.223C250.635 119.366 250.354 119.437 250.033 119.437ZM250.033 118.849C250.229 118.849 250.399 118.804 250.542 118.714C250.685 118.624 250.795 118.498 250.873 118.336C250.951 118.171 250.99 117.975 250.99 117.748C250.99 117.521 250.951 117.326 250.873 117.165C250.795 117 250.685 116.872 250.542 116.782C250.399 116.692 250.229 116.647 250.033 116.647C249.84 116.647 249.672 116.692 249.529 116.782C249.389 116.872 249.279 117 249.198 117.165C249.12 117.326 249.081 117.521 249.081 117.748C249.081 117.975 249.12 118.171 249.198 118.336C249.279 118.498 249.389 118.624 249.529 118.714C249.672 118.804 249.84 118.849 250.033 118.849ZM252.846 119.381V116.642H251.894V116.115H254.446V116.642H253.494V119.381H252.846ZM254.888 119.381V116.115H257.048V116.642H255.541V117.468H256.908V117.977H255.541V118.854H257.048V119.381H254.888Z" fill="white"/>
<circle cx="75" cy="74.3813" r="9.5" fill="#AC952F" stroke="#FAD83B"/>
<path d="M70.2507 76.3813L69.0653 73.1147H69.7653L70.6567 75.7187L71.5527 73.1147H72.2433L71.058 76.3813H70.2507ZM74.0331 76.4373C73.7158 76.4373 73.4358 76.3658 73.1931 76.2227C72.9504 76.0796 72.7591 75.882 72.6191 75.63C72.4822 75.3749 72.4138 75.0809 72.4138 74.748C72.4138 74.4151 72.4822 74.1227 72.6191 73.8707C72.7591 73.6156 72.9504 73.4165 73.1931 73.2733C73.4358 73.1302 73.7158 73.0587 74.0331 73.0587C74.3536 73.0587 74.6351 73.1302 74.8778 73.2733C75.1236 73.4165 75.3133 73.6156 75.4471 73.8707C75.584 74.1227 75.6524 74.4151 75.6524 74.748C75.6524 75.0809 75.584 75.3749 75.4471 75.63C75.3133 75.882 75.1236 76.0796 74.8778 76.2227C74.6351 76.3658 74.3536 76.4373 74.0331 76.4373ZM74.0331 75.8493C74.2291 75.8493 74.3987 75.8042 74.5418 75.714C74.6849 75.6238 74.7953 75.4978 74.8731 75.336C74.9509 75.1711 74.9898 74.9751 74.9898 74.748C74.9898 74.5209 74.9509 74.3265 74.8731 74.1647C74.7953 73.9998 74.6849 73.8722 74.5418 73.782C74.3987 73.6918 74.2291 73.6467 74.0331 73.6467C73.8402 73.6467 73.6722 73.6918 73.5291 73.782C73.3891 73.8722 73.2787 73.9998 73.1978 74.1647C73.12 74.3265 73.0811 74.5209 73.0811 74.748C73.0811 74.9751 73.12 75.1711 73.1978 75.336C73.2787 75.4978 73.3891 75.6238 73.5291 75.714C73.6722 75.8042 73.8402 75.8493 74.0331 75.8493ZM76.8456 76.3813V73.642H75.8936V73.1147H78.4462V73.642H77.4942V76.3813H76.8456ZM78.8876 76.3813V73.1147H81.0483V73.642H79.541V74.468H80.9083V74.9767H79.541V75.854H81.0483V76.3813H78.8876Z" fill="white"/>
<circle cx="59" cy="180.381" r="9.5" fill="#AC952F" stroke="#FAD83B"/>
<path d="M54.2507 182.381L53.0653 179.115H53.7653L54.6567 181.719L55.5527 179.115H56.2433L55.058 182.381H54.2507ZM58.0331 182.437C57.7158 182.437 57.4358 182.366 57.1931 182.223C56.9504 182.08 56.7591 181.882 56.6191 181.63C56.4822 181.375 56.4138 181.081 56.4138 180.748C56.4138 180.415 56.4822 180.123 56.6191 179.871C56.7591 179.616 56.9504 179.416 57.1931 179.273C57.4358 179.13 57.7158 179.059 58.0331 179.059C58.3536 179.059 58.6351 179.13 58.8778 179.273C59.1236 179.416 59.3133 179.616 59.4471 179.871C59.584 180.123 59.6524 180.415 59.6524 180.748C59.6524 181.081 59.584 181.375 59.4471 181.63C59.3133 181.882 59.1236 182.08 58.8778 182.223C58.6351 182.366 58.3536 182.437 58.0331 182.437ZM58.0331 181.849C58.2291 181.849 58.3987 181.804 58.5418 181.714C58.6849 181.624 58.7953 181.498 58.8731 181.336C58.9509 181.171 58.9898 180.975 58.9898 180.748C58.9898 180.521 58.9509 180.326 58.8731 180.165C58.7953 180 58.6849 179.872 58.5418 179.782C58.3987 179.692 58.2291 179.647 58.0331 179.647C57.8402 179.647 57.6722 179.692 57.5291 179.782C57.3891 179.872 57.2787 180 57.1978 180.165C57.12 180.326 57.0811 180.521 57.0811 180.748C57.0811 180.975 57.12 181.171 57.1978 181.336C57.2787 181.498 57.3891 181.624 57.5291 181.714C57.6722 181.804 57.8402 181.849 58.0331 181.849ZM60.8456 182.381V179.642H59.8936V179.115H62.4462V179.642H61.4942V182.381H60.8456ZM62.8876 182.381V179.115H65.0483V179.642H63.541V180.468H64.9083V180.977H63.541V181.854H65.0483V182.381H62.8876Z" fill="white"/>
<line x1="262.715" y1="127.792" x2="223.715" y2="100.792" stroke="#BBBBBB"/>
<line x1="72.7082" y1="136.787" x2="40.7082" y2="113.787" stroke="#BBBBBB"/>
<circle cx="223.5" cy="100.881" r="2.5" fill="#AAAAAA"/>
<circle cx="40.5" cy="113.881" r="2.5" fill="#AAAAAA"/>
</g>
</svg>
