<svg width="377" height="241" viewBox="0 0 377 241" fill="none" xmlns="http://www.w3.org/2000/svg">
<path d="M256.159 190.979L225 172.989L256.159 155L287.317 172.989L256.159 190.979Z" fill="#434343" stroke="#BBBBBB" stroke-width="0.468552"/>
<path d="M225 210.204L256.393 228.328V191.164L225 173.039V210.204Z" fill="#434343"/>
<path d="M256.393 191.078V191.164M256.393 191.164V228.328L225 210.204V173.039L256.393 191.164Z" stroke="#D8D8D8" stroke-width="0.468552"/>
<path d="M287.507 173.277L256.436 191.155V227.376L287.507 209.863V173.277Z" fill="#434343" stroke="#BBBBBB" stroke-width="0.468552"/>
<circle cx="240.5" cy="201.5" r="2.5" fill="#AAAAAA"/>
<line x1="238.25" y1="202.433" x2="193.25" y2="228.433" stroke="#BBBBBB"/>
<path d="M345.159 138.979L314 120.989L345.159 103L376.317 120.989L345.159 138.979Z" fill="#434343" stroke="#BBBBBB" stroke-width="0.468552"/>
<path d="M314 158.204L345.393 176.328V139.164L314 121.039V158.204Z" fill="#434343"/>
<path d="M345.393 139.078V139.164M345.393 139.164V176.328L314 158.204V121.039L345.393 139.164Z" stroke="#D8D8D8" stroke-width="0.468552"/>
<path d="M376.507 121.277L345.436 139.155V175.376L376.507 157.863V121.277Z" fill="#434343" stroke="#BBBBBB" stroke-width="0.468552"/>
<circle cx="329.5" cy="149.5" r="2.5" fill="#AAAAAA"/>
<line x1="327.249" y1="150.433" x2="287.249" y2="173.433" stroke="#BBBBBB"/>
<path d="M256.159 83.979L225 65.9895L256.159 48L287.317 65.9895L256.159 83.979Z" fill="#434343" stroke="#BBBBBB" stroke-width="0.468552"/>
<path d="M225 103.204L256.393 121.328V84.1639L225 66.0392V103.204Z" fill="#434343"/>
<path d="M256.393 84.0784V84.1639M256.393 84.1639V121.328L225 103.204V66.0392L256.393 84.1639Z" stroke="#D8D8D8" stroke-width="0.468552"/>
<path d="M287.507 66.2767L256.436 84.155V120.376L287.507 102.863V66.2767Z" fill="#434343" stroke="#BBBBBB" stroke-width="0.468552"/>
<circle cx="240.5" cy="94.5" r="2.5" fill="#AAAAAA"/>
<line x1="238.265" y1="95.4243" x2="161.265" y2="143.424" stroke="#BBBBBB"/>
<path d="M333.159 36.979L302 18.9895L333.159 1L364.317 18.9895L333.159 36.979Z" fill="#434343" stroke="#BBBBBB" stroke-width="0.468552"/>
<path d="M302 56.2035L333.393 74.3283V37.1639L302 19.0392V56.2035Z" fill="#434343"/>
<path d="M333.393 37.0784V37.1639M333.393 37.1639V74.3283L302 56.2035V19.0392L333.393 37.1639Z" stroke="#D8D8D8" stroke-width="0.468552"/>
<path d="M364.507 19.2767L333.436 37.155V73.376L364.507 55.8632V19.2767Z" fill="#434343" stroke="#BBBBBB" stroke-width="0.468552"/>
<circle cx="317.5" cy="47.5" r="2.5" fill="#AAAAAA"/>
<line x1="315.27" y1="48.4206" x2="287.27" y2="66.4206" stroke="#BBBBBB"/>
<path d="M170.159 39.979L139 21.9895L170.159 4L201.317 21.9895L170.159 39.979Z" fill="#434343" stroke="#BBBBBB" stroke-width="0.468552"/>
<path d="M139 59.2035L170.393 77.3283V40.1639L139 22.0392V59.2035Z" fill="#434343"/>
<path d="M170.393 40.0784V40.1639M170.393 40.1639V77.3283L139 59.2035V22.0392L170.393 40.1639Z" stroke="#D8D8D8" stroke-width="0.468552"/>
<path d="M201.507 22.2767L170.436 40.155V76.376L201.507 58.8632V22.2767Z" fill="#434343" stroke="#BBBBBB" stroke-width="0.468552"/>
<circle cx="154.5" cy="50.5" r="2.5" fill="#AAAAAA"/>
<line x1="152.265" y1="51.4243" x2="75.2645" y2="99.4243" stroke="#BBBBBB"/>
<path d="M153.159 146.979L122 128.989L153.159 111L184.317 128.989L153.159 146.979Z" fill="#434343" stroke="#BBBBBB" stroke-width="0.468552"/>
<path d="M122 166.204L153.393 184.328V147.164L122 129.039V166.204Z" fill="#434343"/>
<path d="M153.393 147.078V147.164M153.393 147.164V184.328L122 166.204V129.039L153.393 147.164Z" stroke="#D8D8D8" stroke-width="0.468552"/>
<path d="M184.507 129.277L153.436 147.155V183.376L184.507 165.863V129.277Z" fill="#434343" stroke="#BBBBBB" stroke-width="0.468552"/>
<circle cx="137.5" cy="157.5" r="2.5" fill="#AAAAAA"/>
<line x1="135.252" y1="158.432" x2="87.2519" y2="186.432" stroke="#BBBBBB"/>
<path d="M74.1587 97.979L43 79.9895L74.1587 62L105.317 79.9895L74.1587 97.979Z" fill="#434343" stroke="#BBBBBB" stroke-width="0.468552"/>
<path d="M43 117.204L74.393 135.328V98.1639L43 80.0392V117.204Z" fill="#434343"/>
<path d="M74.393 98.0784V98.1639M74.393 98.1639V135.328L43 117.204V80.0392L74.393 98.1639Z" stroke="#D8D8D8" stroke-width="0.468552"/>
<path d="M105.507 80.2767L74.436 98.155V134.376L105.507 116.863V80.2767Z" fill="#434343" stroke="#BBBBBB" stroke-width="0.468552"/>
<circle cx="58.5" cy="108.5" r="2.5" fill="#AAAAAA"/>
<line x1="56.2492" y1="109.433" x2="16.2492" y2="132.433" stroke="#D9D9D9"/>
<path d="M58.1587 202.979L27 184.989L58.1587 167L89.3174 184.989L58.1587 202.979Z" fill="#434343" stroke="#BBBBBB" stroke-width="0.468552"/>
<path d="M27 222.204L58.393 240.328V203.164L27 185.039V222.204Z" fill="#434343"/>
<path d="M58.393 203.078V203.164M58.393 203.164V240.328L27 222.204V185.039L58.393 203.164Z" stroke="#D8D8D8" stroke-width="0.468552"/>
<path d="M89.5065 185.277L58.436 203.155V239.376L89.5065 221.863V185.277Z" fill="#434343" stroke="#BBBBBB" stroke-width="0.468552"/>
<circle cx="42.5" cy="213.5" r="2.5" fill="#AAAAAA"/>
<line x1="40.2492" y1="214.433" x2="0.249238" y2="237.433" stroke="#D9D9D9"/>
<circle cx="209" cy="115" r="9.5" fill="#AC952F" stroke="#FAD83B"/>
<path d="M204.251 117L203.065 113.733H203.765L204.657 116.337L205.553 113.733H206.243L205.058 117H204.251ZM208.033 117.056C207.716 117.056 207.436 116.984 207.193 116.841C206.95 116.698 206.759 116.501 206.619 116.249C206.482 115.994 206.414 115.7 206.414 115.367C206.414 115.034 206.482 114.741 206.619 114.489C206.759 114.234 206.95 114.035 207.193 113.892C207.436 113.749 207.716 113.677 208.033 113.677C208.354 113.677 208.635 113.749 208.878 113.892C209.124 114.035 209.313 114.234 209.447 114.489C209.584 114.741 209.652 115.034 209.652 115.367C209.652 115.7 209.584 115.994 209.447 116.249C209.313 116.501 209.124 116.698 208.878 116.841C208.635 116.984 208.354 117.056 208.033 117.056ZM208.033 116.468C208.229 116.468 208.399 116.423 208.542 116.333C208.685 116.242 208.795 116.116 208.873 115.955C208.951 115.79 208.99 115.594 208.99 115.367C208.99 115.14 208.951 114.945 208.873 114.783C208.795 114.618 208.685 114.491 208.542 114.401C208.399 114.31 208.229 114.265 208.033 114.265C207.84 114.265 207.672 114.31 207.529 114.401C207.389 114.491 207.279 114.618 207.198 114.783C207.12 114.945 207.081 115.14 207.081 115.367C207.081 115.594 207.12 115.79 207.198 115.955C207.279 116.116 207.389 116.242 207.529 116.333C207.672 116.423 207.84 116.468 208.033 116.468ZM210.846 117V114.261H209.894V113.733H212.446V114.261H211.494V117H210.846ZM212.888 117V113.733H215.048V114.261H213.541V115.087H214.908V115.595H213.541V116.473H215.048V117H212.888Z" fill="white"/>
<circle cx="302" cy="111" r="9.5" fill="#AC952F" stroke="#FAD83B"/>
<path d="M297.251 113L296.065 109.733H296.765L297.657 112.337L298.553 109.733H299.243L298.058 113H297.251ZM301.033 113.056C300.716 113.056 300.436 112.984 300.193 112.841C299.95 112.698 299.759 112.501 299.619 112.249C299.482 111.994 299.414 111.7 299.414 111.367C299.414 111.034 299.482 110.741 299.619 110.489C299.759 110.234 299.95 110.035 300.193 109.892C300.436 109.749 300.716 109.677 301.033 109.677C301.354 109.677 301.635 109.749 301.878 109.892C302.124 110.035 302.313 110.234 302.447 110.489C302.584 110.741 302.652 111.034 302.652 111.367C302.652 111.7 302.584 111.994 302.447 112.249C302.313 112.501 302.124 112.698 301.878 112.841C301.635 112.984 301.354 113.056 301.033 113.056ZM301.033 112.468C301.229 112.468 301.399 112.423 301.542 112.333C301.685 112.242 301.795 112.116 301.873 111.955C301.951 111.79 301.99 111.594 301.99 111.367C301.99 111.14 301.951 110.945 301.873 110.783C301.795 110.618 301.685 110.491 301.542 110.401C301.399 110.31 301.229 110.265 301.033 110.265C300.84 110.265 300.672 110.31 300.529 110.401C300.389 110.491 300.279 110.618 300.198 110.783C300.12 110.945 300.081 111.14 300.081 111.367C300.081 111.594 300.12 111.79 300.198 111.955C300.279 112.116 300.389 112.242 300.529 112.333C300.672 112.423 300.84 112.468 301.033 112.468ZM303.846 113V110.261H302.894V109.733H305.446V110.261H304.494V113H303.846ZM305.888 113V109.733H308.048V110.261H306.541V111.087H307.908V111.595H306.541V112.473H308.048V113H305.888Z" fill="white"/>
<circle cx="126" cy="68" r="9.5" fill="#AC952F" stroke="#FAD83B"/>
<path d="M121.251 70L120.065 66.7333H120.765L121.657 69.3373L122.553 66.7333H123.243L122.058 70H121.251ZM125.033 70.056C124.716 70.056 124.436 69.9844 124.193 69.8413C123.95 69.6982 123.759 69.5007 123.619 69.2487C123.482 68.9936 123.414 68.6996 123.414 68.3667C123.414 68.0338 123.482 67.7413 123.619 67.4893C123.759 67.2342 123.95 67.0351 124.193 66.892C124.436 66.7489 124.716 66.6773 125.033 66.6773C125.354 66.6773 125.635 66.7489 125.878 66.892C126.124 67.0351 126.313 67.2342 126.447 67.4893C126.584 67.7413 126.652 68.0338 126.652 68.3667C126.652 68.6996 126.584 68.9936 126.447 69.2487C126.313 69.5007 126.124 69.6982 125.878 69.8413C125.635 69.9844 125.354 70.056 125.033 70.056ZM125.033 69.468C125.229 69.468 125.399 69.4229 125.542 69.3327C125.685 69.2424 125.795 69.1164 125.873 68.9547C125.951 68.7898 125.99 68.5938 125.99 68.3667C125.99 68.1396 125.951 67.9451 125.873 67.7833C125.795 67.6184 125.685 67.4909 125.542 67.4007C125.399 67.3104 125.229 67.2653 125.033 67.2653C124.84 67.2653 124.672 67.3104 124.529 67.4007C124.389 67.4909 124.279 67.6184 124.198 67.7833C124.12 67.9451 124.081 68.1396 124.081 68.3667C124.081 68.5938 124.12 68.7898 124.198 68.9547C124.279 69.1164 124.389 69.2424 124.529 69.3327C124.672 69.4229 124.84 69.468 125.033 69.468ZM127.846 70V67.2607H126.894V66.7333H129.446V67.2607H128.494V70H127.846ZM129.888 70V66.7333H132.048V67.2607H130.541V68.0867H131.908V68.5953H130.541V69.4727H132.048V70H129.888Z" fill="white"/>
<circle cx="110" cy="174" r="9.5" fill="#AC952F" stroke="#FAD83B"/>
<path d="M105.251 176L104.065 172.733H104.765L105.657 175.337L106.553 172.733H107.243L106.058 176H105.251ZM109.033 176.056C108.716 176.056 108.436 175.984 108.193 175.841C107.95 175.698 107.759 175.501 107.619 175.249C107.482 174.994 107.414 174.7 107.414 174.367C107.414 174.034 107.482 173.741 107.619 173.489C107.759 173.234 107.95 173.035 108.193 172.892C108.436 172.749 108.716 172.677 109.033 172.677C109.354 172.677 109.635 172.749 109.878 172.892C110.124 173.035 110.313 173.234 110.447 173.489C110.584 173.741 110.652 174.034 110.652 174.367C110.652 174.7 110.584 174.994 110.447 175.249C110.313 175.501 110.124 175.698 109.878 175.841C109.635 175.984 109.354 176.056 109.033 176.056ZM109.033 175.468C109.229 175.468 109.399 175.423 109.542 175.333C109.685 175.242 109.795 175.116 109.873 174.955C109.951 174.79 109.99 174.594 109.99 174.367C109.99 174.14 109.951 173.945 109.873 173.783C109.795 173.618 109.685 173.491 109.542 173.401C109.399 173.31 109.229 173.265 109.033 173.265C108.84 173.265 108.672 173.31 108.529 173.401C108.389 173.491 108.279 173.618 108.198 173.783C108.12 173.945 108.081 174.14 108.081 174.367C108.081 174.594 108.12 174.79 108.198 174.955C108.279 175.116 108.389 175.242 108.529 175.333C108.672 175.423 108.84 175.468 109.033 175.468ZM111.846 176V173.261H110.894V172.733H113.446V173.261H112.494V176H111.846ZM113.888 176V172.733H116.048V173.261H114.541V174.087H115.908V174.595H114.541V175.473H116.048V176H113.888Z" fill="white"/>
<line x1="313.715" y1="121.411" x2="274.715" y2="94.4111" stroke="#BBBBBB"/>
<line x1="123.708" y1="130.406" x2="91.7082" y2="107.406" stroke="#BBBBBB"/>
<circle cx="274.5" cy="94.5" r="2.5" fill="#AAAAAA"/>
<circle cx="91.5" cy="107.5" r="2.5" fill="#AAAAAA"/>
</svg>
